<?xml version="1.0" encoding="UTF-8" standalone="no"?>
<!-- Created with Inkscape (http://www.inkscape.org/) -->

<svg
   xmlns:dc="http://purl.org/dc/elements/1.1/"
   xmlns:cc="http://creativecommons.org/ns#"
   xmlns:rdf="http://www.w3.org/1999/02/22-rdf-syntax-ns#"
   xmlns:svg="http://www.w3.org/2000/svg"
   xmlns="http://www.w3.org/2000/svg"
   xmlns:sodipodi="http://sodipodi.sourceforge.net/DTD/sodipodi-0.dtd"
   xmlns:inkscape="http://www.inkscape.org/namespaces/inkscape"
   width="53.801975mm"
   height="53.801975mm"
   viewBox="0 0 53.801972 53.801973"
   version="1.1"
   id="svg8"
   inkscape:version="0.92.5 (2060ec1f9f, 2020-04-08)"
   sodipodi:docname="full.svg"
   inkscape:export-filename="/lfiles/projects/unyw/android-apk/icons/lpenguin/full.png"
   inkscape:export-xdpi="1133.0438"
   inkscape:export-ydpi="1133.0438">
  <defs
     id="defs2">
    <filter
       style="color-interpolation-filters:sRGB"
       inkscape:label="Drop Shadow"
       id="filter3173">
      <feFlood
         flood-opacity="0.498039"
         flood-color="rgb(0,0,0)"
         result="flood"
         id="feFlood3163" />
      <feComposite
         in="flood"
         in2="SourceGraphic"
         operator="in"
         result="composite1"
         id="feComposite3165" />
      <feGaussianBlur
         in="composite1"
         stdDeviation="2.9"
         result="blur"
         id="feGaussianBlur3167" />
      <feOffset
         dx="6.3"
         dy="5.1"
         result="offset"
         id="feOffset3169" />
      <feComposite
         in="SourceGraphic"
         in2="offset"
         operator="over"
         result="composite2"
         id="feComposite3171" />
    </filter>
    <meshgradient
       inkscape:collect="always"
       id="meshgradient3223"
       gradientUnits="userSpaceOnUse"
       x="-11.727144"
       y="5.446578"
       gradientTransform="matrix(0.61238652,0,0,0.61238652,-18.097133,36.291105)">
      <meshrow
         id="meshrow3225">
        <meshpatch
           id="meshpatch3227">
          <stop
             path="c 57.6455,0  115.291,0  172.936,0"
             style="stop-color:#ffffff;stop-opacity:1"
             id="stop3229" />
          <stop
             path="c 0,57.6455  0,115.291  0,172.936"
             style="stop-color:#ffe680;stop-opacity:1"
             id="stop3231" />
          <stop
             path="c -57.6455,0  -115.291,0  -172.936,0"
             style="stop-color:#ffffff;stop-opacity:1"
             id="stop3233" />
          <stop
             path="c 0,-57.6455  0,-115.291  0,-172.936"
             style="stop-color:#ffe680;stop-opacity:1"
             id="stop3235" />
        </meshpatch>
      </meshrow>
    </meshgradient>
    <filter
       style="color-interpolation-filters:sRGB"
       inkscape:label="Drop Shadow"
       id="filter7942">
      <feFlood
         flood-opacity="0.654902"
         flood-color="rgb(0,0,0)"
         result="flood"
         id="feFlood7932" />
      <feComposite
         in="flood"
         in2="SourceGraphic"
         operator="in"
         result="composite1"
         id="feComposite7934" />
      <feGaussianBlur
         in="composite1"
         stdDeviation="1.9"
         result="blur"
         id="feGaussianBlur7936" />
      <feOffset
         dx="1.7"
         dy="2.6"
         result="offset"
         id="feOffset7938" />
      <feComposite
         in="SourceGraphic"
         in2="offset"
         operator="over"
         result="composite2"
         id="feComposite7940" />
    </filter>
    <filter
       style="color-interpolation-filters:sRGB"
       inkscape:label="Drop Shadow"
       id="filter7954">
      <feFlood
         flood-opacity="0.654902"
         flood-color="rgb(0,0,0)"
         result="flood"
         id="feFlood7944" />
      <feComposite
         in="flood"
         in2="SourceGraphic"
         operator="in"
         result="composite1"
         id="feComposite7946" />
      <feGaussianBlur
         in="composite1"
         stdDeviation="1.9"
         result="blur"
         id="feGaussianBlur7948" />
      <feOffset
         dx="1.7"
         dy="2.6"
         result="offset"
         id="feOffset7950" />
      <feComposite
         in="SourceGraphic"
         in2="offset"
         operator="over"
         result="composite2"
         id="feComposite7952" />
    </filter>
    <filter
       style="color-interpolation-filters:sRGB"
       inkscape:label="Drop Shadow"
       id="filter7966">
      <feFlood
         flood-opacity="0.654902"
         flood-color="rgb(0,0,0)"
         result="flood"
         id="feFlood7956" />
      <feComposite
         in="flood"
         in2="SourceGraphic"
         operator="in"
         result="composite1"
         id="feComposite7958" />
      <feGaussianBlur
         in="composite1"
         stdDeviation="1.9"
         result="blur"
         id="feGaussianBlur7960" />
      <feOffset
         dx="1.7"
         dy="2.6"
         result="offset"
         id="feOffset7962" />
      <feComposite
         in="SourceGraphic"
         in2="offset"
         operator="over"
         result="composite2"
         id="feComposite7964" />
    </filter>
    <filter
       style="color-interpolation-filters:sRGB"
       inkscape:label="Drop Shadow"
       id="filter7978">
      <feFlood
         flood-opacity="0.654902"
         flood-color="rgb(0,0,0)"
         result="flood"
         id="feFlood7968" />
      <feComposite
         in="flood"
         in2="SourceGraphic"
         operator="in"
         result="composite1"
         id="feComposite7970" />
      <feGaussianBlur
         in="composite1"
         stdDeviation="1.9"
         result="blur"
         id="feGaussianBlur7972" />
      <feOffset
         dx="1.7"
         dy="2.6"
         result="offset"
         id="feOffset7974" />
      <feComposite
         in="SourceGraphic"
         in2="offset"
         operator="over"
         result="composite2"
         id="feComposite7976" />
    </filter>
    <filter
       style="color-interpolation-filters:sRGB"
       inkscape:label="Drop Shadow"
       id="filter7990">
      <feFlood
         flood-opacity="0.654902"
         flood-color="rgb(0,0,0)"
         result="flood"
         id="feFlood7980" />
      <feComposite
         in="flood"
         in2="SourceGraphic"
         operator="in"
         result="composite1"
         id="feComposite7982" />
      <feGaussianBlur
         in="composite1"
         stdDeviation="1.9"
         result="blur"
         id="feGaussianBlur7984" />
      <feOffset
         dx="1.7"
         dy="2.6"
         result="offset"
         id="feOffset7986" />
      <feComposite
         in="SourceGraphic"
         in2="offset"
         operator="over"
         result="composite2"
         id="feComposite7988" />
    </filter>
    <filter
       style="color-interpolation-filters:sRGB"
       inkscape:label="Drop Shadow"
       id="filter8002">
      <feFlood
         flood-opacity="0.654902"
         flood-color="rgb(0,0,0)"
         result="flood"
         id="feFlood7992" />
      <feComposite
         in="flood"
         in2="SourceGraphic"
         operator="in"
         result="composite1"
         id="feComposite7994" />
      <feGaussianBlur
         in="composite1"
         stdDeviation="1.9"
         result="blur"
         id="feGaussianBlur7996" />
      <feOffset
         dx="1.7"
         dy="2.6"
         result="offset"
         id="feOffset7998" />
      <feComposite
         in="SourceGraphic"
         in2="offset"
         operator="over"
         result="composite2"
         id="feComposite8000" />
    </filter>
    <filter
       style="color-interpolation-filters:sRGB"
       inkscape:label="Drop Shadow"
       id="filter8014">
      <feFlood
         flood-opacity="0.654902"
         flood-color="rgb(0,0,0)"
         result="flood"
         id="feFlood8004" />
      <feComposite
         in="flood"
         in2="SourceGraphic"
         operator="in"
         result="composite1"
         id="feComposite8006" />
      <feGaussianBlur
         in="composite1"
         stdDeviation="1.9"
         result="blur"
         id="feGaussianBlur8008" />
      <feOffset
         dx="1.7"
         dy="2.6"
         result="offset"
         id="feOffset8010" />
      <feComposite
         in="SourceGraphic"
         in2="offset"
         operator="over"
         result="composite2"
         id="feComposite8012" />
    </filter>
    <filter
       style="color-interpolation-filters:sRGB"
       inkscape:label="Drop Shadow"
       id="filter8026">
      <feFlood
         flood-opacity="0.654902"
         flood-color="rgb(0,0,0)"
         result="flood"
         id="feFlood8016" />
      <feComposite
         in="flood"
         in2="SourceGraphic"
         operator="in"
         result="composite1"
         id="feComposite8018" />
      <feGaussianBlur
         in="composite1"
         stdDeviation="1.9"
         result="blur"
         id="feGaussianBlur8020" />
      <feOffset
         dx="1.7"
         dy="2.6"
         result="offset"
         id="feOffset8022" />
      <feComposite
         in="SourceGraphic"
         in2="offset"
         operator="over"
         result="composite2"
         id="feComposite8024" />
    </filter>
    <filter
       style="color-interpolation-filters:sRGB"
       inkscape:label="Drop Shadow"
       id="filter8038">
      <feFlood
         flood-opacity="0.654902"
         flood-color="rgb(0,0,0)"
         result="flood"
         id="feFlood8028" />
      <feComposite
         in="flood"
         in2="SourceGraphic"
         operator="in"
         result="composite1"
         id="feComposite8030" />
      <feGaussianBlur
         in="composite1"
         stdDeviation="1.9"
         result="blur"
         id="feGaussianBlur8032" />
      <feOffset
         dx="1.7"
         dy="2.6"
         result="offset"
         id="feOffset8034" />
      <feComposite
         in="SourceGraphic"
         in2="offset"
         operator="over"
         result="composite2"
         id="feComposite8036" />
    </filter>
  </defs>
  <sodipodi:namedview
     id="base"
     pagecolor="#ffffff"
     bordercolor="#666666"
     borderopacity="1.0"
     inkscape:pageopacity="0.0"
     inkscape:pageshadow="2"
     inkscape:zoom="1.1275698"
     inkscape:cx="354.71059"
     inkscape:cy="161.05176"
     inkscape:document-units="mm"
     inkscape:current-layer="layer4"
     showgrid="false"
     inkscape:measure-start="155.357,701.786"
     inkscape:measure-end="183.214,790.357"
     inkscape:snap-others="true"
     inkscape:snap-grids="true"
     showguides="true"
     inkscape:guide-bbox="true"
     inkscape:snap-object-midpoints="true"
     inkscape:object-nodes="true"
     inkscape:window-width="1920"
     inkscape:window-height="1007"
     inkscape:window-x="0"
     inkscape:window-y="0"
     inkscape:window-maximized="1"
     inkscape:snap-smooth-nodes="true"
     inkscape:snap-bbox="false"
     inkscape:snap-nodes="false"
     inkscape:bbox-paths="true"
     inkscape:bbox-nodes="true"
     inkscape:snap-bbox-edge-midpoints="true"
     inkscape:snap-bbox-midpoints="true">
    <inkscape:grid
       type="xygrid"
       id="grid875"
       originx="-23.982329"
       originy="-178.28323" />
    <sodipodi:guide
       position="32.903084,4.2792593"
       orientation="0,1"
       id="guide883"
       inkscape:locked="false" />
    <sodipodi:guide
       position="34.607032,22.568232"
       orientation="1,0"
       id="guide898"
       inkscape:locked="false" />
    <sodipodi:guide
       position="106.65233,34.808275"
       orientation="1,0"
       id="guide1819"
       inkscape:locked="false" />
    <sodipodi:guide
       position="26.796405,57.491979"
       orientation="1,0"
       id="guide99"
       inkscape:locked="false" />
  </sodipodi:namedview>
  <metadata
     id="metadata5">
    <rdf:RDF>
      <cc:Work
         rdf:about="">
        <dc:format>image/svg+xml</dc:format>
        <dc:type
           rdf:resource="http://purl.org/dc/dcmitype/StillImage" />
        <dc:title />
      </cc:Work>
    </rdf:RDF>
  </metadata>
  <g
     inkscape:label="background"
     inkscape:groupmode="layer"
     id="layer1"
     transform="translate(-23.982329,-64.914769)"
     style="opacity:0"
     sodipodi:insensitive="true">
    <rect
       style="opacity:1;fill:url(#meshgradient3223);fill-opacity:1;fill-rule:nonzero;stroke:#000000;stroke-width:0;stroke-linecap:round;stroke-linejoin:bevel;stroke-miterlimit:4;stroke-dasharray:none;stroke-dashoffset:0;stroke-opacity:1;paint-order:normal"
       id="rect817"
       width="105.90395"
       height="105.90395"
       x="-25.278677"
       y="39.626518"
       ry="0"
       inkscape:export-xdpi="96"
       inkscape:export-ydpi="96" />
  </g>
  <g
     inkscape:groupmode="layer"
     id="layer3"
     inkscape:label="lcore"
     style="opacity:0"
     transform="translate(-23.982329,-64.914769)"
     sodipodi:insensitive="true">
    <path
       inkscape:connector-curvature="0"
       style="opacity:1;fill:#211b66;fill-opacity:1;fill-rule:nonzero;stroke:#000000;stroke-width:0;stroke-linecap:round;stroke-linejoin:bevel;stroke-miterlimit:4;stroke-dasharray:none;stroke-dashoffset:0;stroke-opacity:1;paint-order:normal;filter:url(#filter8026)"
       d="m 59.0985,59.225251 c -6.749744,-3.7e-5 -13.020066,2.051582 -18.221567,5.565638 -1.099259,0.742626 -2.144193,1.55782 -3.1424,2.42549 -0.374816,0.325798 -0.741775,0.659826 -1.101264,1.002174 -0.193312,0.184093 -0.390786,0.363757 -0.579535,0.552509 -0.368612,0.368607 -0.728809,0.745448 -1.079498,1.131295 -0.350689,0.385833 -0.691854,0.779952 -1.023944,1.18234 -1.19e-4,1.45e-4 1.19e-4,7.7e-4 0,7.7e-4 -0.331957,0.402246 -0.654957,0.812282 -0.967644,1.230384 -1.2e-4,1.61e-4 1.19e-4,7.68e-4 0,7.68e-4 -0.312676,0.418102 -0.615614,0.843647 -0.908337,1.276927 -0.5859,0.867189 -1.130877,1.763597 -1.63276,2.687481 -0.125423,0.230889 -0.24787,0.463179 -0.367838,0.697393 -0.120122,0.234521 -0.237505,0.470134 -0.352073,0.707903 -0.114427,0.237459 -0.226019,0.476297 -0.334811,0.716914 -0.108892,0.240826 -0.214383,0.482765 -0.317543,0.726668 -0.103085,0.24369 -0.203004,0.488255 -0.300277,0.73493 -1.19e-4,3.04e-4 -7.69e-4,3.84e-4 -7.69e-4,7.69e-4 -0.09716,0.246377 -0.190985,0.494663 -0.282262,0.743937 -0.05923,0.161763 -0.115168,0.325 -0.171906,0.487951 -0.03083,0.08851 -0.06376,0.176134 -0.09384,0.264993 -7.8e-5,2.26e-4 7.3e-5,3.84e-4 0,7.69e-4 -0.08533,0.252167 -0.167694,0.505556 -0.246979,0.76045 -7.3e-5,2.29e-4 7e-5,3.83e-4 0,7.67e-4 -0.07927,0.254896 -0.155817,0.511173 -0.228959,0.768709 -6.9e-5,2.31e-4 6.4e-5,3.85e-4 0,7.7e-4 -0.07315,0.257537 -0.143279,0.516123 -0.210196,0.776215 -0.06705,0.260565 -0.130712,0.522182 -0.191428,0.785225 -0.06067,0.262803 -0.118394,0.526789 -0.172661,0.791982 -4.5e-5,2.4e-4 5e-5,3.84e-4 0,7.69e-4 -0.05421,0.264954 -0.10539,0.530733 -0.153137,0.797987 -0.04783,0.267739 -0.09237,0.53628 -0.133633,0.806244 -0.04121,0.269715 -0.07879,0.540404 -0.113357,0.812249 -3.2e-5,2.45e-4 2.9e-5,3.85e-4 0,7.69e-4 -0.03452,0.271605 -0.06604,0.543858 -0.09383,0.817503 -2.8e-5,2.51e-4 2.2e-5,3.85e-4 0,7.7e-4 -0.02779,0.273647 -0.05184,0.54865 -0.07282,0.82426 -1.7e-5,2.49e-4 1.8e-5,3.83e-4 0,7.68e-4 -0.0011,0.01745 -0.0016,0.03509 -0.0031,0.05254 -0.039,0.523846 -0.06637,1.050511 -0.08032,1.580958 -2.77e-4,0.01062 -0.0011,0.02099 -0.0016,0.03153 -4e-6,2.54e-4 7e-6,3.85e-4 0,7.69e-4 -0.0071,0.27928 -0.01051,0.55979 -0.01051,0.840775 -4e-6,0.281241 0.0035,0.561993 0.01051,0.841525 2.73e-4,0.01073 0.0011,0.02149 0.0016,0.0323 0.01394,0.530451 0.04131,1.057117 0.08032,1.580963 0.0011,0.01745 0.0016,0.03509 0.0031,0.05254 1.8e-5,2.5e-4 -1.7e-5,3.86e-4 0,7.7e-4 0.02099,0.275614 0.04503,0.550607 0.07282,0.824258 2.2e-5,2.48e-4 -2.8e-5,3.86e-4 0,7.71e-4 0.02779,0.273653 0.05931,0.545897 0.09383,0.817508 0.03459,0.272092 0.0721,0.543038 0.113357,0.812996 0.04122,0.269724 0.08585,0.537994 0.133633,0.805495 4.1e-5,2.4e-4 -4.7e-5,3.81e-4 0,7.67e-4 0.04773,0.267254 0.09893,0.533028 0.153137,0.797986 0.05432,0.26543 0.111943,0.529691 0.172661,0.792731 0.06067,0.262806 0.124451,0.524142 0.191428,0.78448 6.1e-5,2.3e-4 -6.3e-5,3.8e-4 0,7.6e-4 0.06692,0.260097 0.13706,0.518677 0.210196,0.776217 6.4e-5,2.3e-4 -6.9e-5,3.8e-4 0,7.7e-4 0.07315,0.25754 0.149679,0.51381 0.228959,0.76871 7e-5,2.4e-4 -7.3e-5,3.8e-4 0,7.8e-4 0.07928,0.25489 0.161645,0.50827 0.246979,0.76043 0.03012,0.0891 0.06294,0.17702 0.09384,0.26576 0.05662,0.16264 0.112044,0.32573 0.171156,0.48719 1.07e-4,3.1e-4 7.7e-4,4e-4 7.7e-4,7.7e-4 0.09127,0.24927 0.185109,0.49757 0.282261,0.74393 0.09738,0.24698 0.197828,0.49171 0.301027,0.73568 0.103075,0.2437 0.208755,0.48529 0.317543,0.72591 0.108881,0.24083 0.220289,0.48001 0.334811,0.71768 0.114412,0.23746 0.231355,0.47293 0.351322,0.70715 0.360041,0.70295 0.744604,1.39068 1.153065,2.06289 0.272188,0.44797 0.554693,0.88852 0.847534,1.32197 1.91e-4,2.9e-4 3.83e-4,3.9e-4 7.68e-4,7.8e-4 0.292655,0.43316 0.595742,0.85894 0.908337,1.27693 1.23e-4,1.5e-4 -1.22e-4,7.7e-4 0,7.7e-4 0.312696,0.41811 0.635681,0.82815 0.967644,1.23038 0.332206,0.40254 0.673125,0.79711 1.023944,1.1831 0.350689,0.38585 0.710888,0.76267 1.079499,1.13129 0.188749,0.18875 0.386222,0.36841 0.579534,0.55251 0.184206,0.17542 0.363488,0.35586 0.551761,0.527 1.3e-4,1.1e-4 7.69e-4,-1.4e-4 7.69e-4,0 0.179009,0.16268 0.366142,0.31645 0.548753,0.47518 0.604598,0.52553 1.222249,1.03593 1.864721,1.51638 0.418269,0.31282 0.844226,0.61627 1.277679,0.90911 0.43346,0.29283 0.874007,0.57533 1.321973,0.84752 1.82e-4,1.2e-4 3.85e-4,-1e-4 7.68e-4,0 0.447785,0.27208 0.902412,0.53373 1.364011,0.78448 0.692856,0.3764 1.400902,0.72826 2.12296,1.05471 0.240622,0.1088 0.482226,0.21449 0.725918,0.31754 1.462335,0.61856 2.978737,1.13326 4.54094,1.53518 0.260332,0.067 0.521665,0.13075 0.784476,0.19143 0.52584,0.12143 1.056233,0.2302 1.591466,0.32579 0.267499,0.0478 0.535776,0.0923 0.805492,0.13366 1.618526,0.24733 3.275921,0.37536 4.963585,0.37536 6.061868,-0.007 12.001419,-1.70628 17.151069,-4.90429 6.08436,-5.2653 1.06765,-11.70116 -5.33066,-8.60517 -3.548162,2.20755 -7.641574,3.38146 -11.820409,3.39161 -6.205673,-1e-5 -11.823902,-2.5153 -15.890665,-6.58208 -0.254048,-0.25403 -0.502237,-0.51405 -0.743939,-0.77996 -1.27e-4,-1.4e-4 1.28e-4,-7.8e-4 0,-7.8e-4 -0.241689,-0.26592 -0.477527,-0.53717 -0.706402,-0.8145 -1.26e-4,-1.6e-4 1.23e-4,-7.7e-4 0,-7.7e-4 -0.228863,-0.27731 -0.451782,-0.56001 -0.667366,-0.84827 -1.22e-4,-1.6e-4 1.24e-4,-7.8e-4 0,-7.8e-4 -0.215569,-0.28824 -0.424258,-0.58184 -0.626079,-0.88056 -1.15e-4,-1.7e-4 1.19e-4,-7.7e-4 0,-7.7e-4 -0.201805,-0.29871 -0.3972,-0.60188 -0.584787,-0.91058 -1.13e-4,-1.8e-4 1.11e-4,-3.7e-4 0,-7.7e-4 -0.187573,-0.3087 -0.368367,-0.62239 -0.541249,-0.94061 -1.08e-4,-2.1e-4 1.03e-4,-3.9e-4 0,-7.8e-4 -0.17287,-0.31823 -0.338496,-0.64111 -0.49621,-0.9684 -10e-5,-2e-4 1e-4,-3.7e-4 0,-7.6e-4 -0.157701,-0.32728 -0.307594,-0.65881 -0.449663,-0.99467 -9.4e-5,-2.1e-4 9.1e-5,-3.8e-4 0,-7.7e-4 -0.142058,-0.33586 -0.276414,-0.675466 -0.402374,-1.019436 -8.1e-5,-2.24e-4 8.4e-5,-3.85e-4 0,-7.7e-4 -0.125947,-0.343969 -0.2442,-0.691849 -0.353576,-1.043461 -6.9e-5,-2.3e-4 7.4e-5,-3.85e-4 0,-7.69e-4 -0.109356,-0.351614 -0.210953,-0.7072 -0.303278,-1.065984 -6.3e-5,-2.34e-4 6.1e-5,-3.85e-4 0,-7.69e-4 -0.09231,-0.358787 -0.175932,-0.720768 -0.250731,-1.086255 -4.9e-5,-2.39e-4 4.7e-5,-3.84e-4 0,-7.7e-4 -0.07477,-0.36549 -0.140619,-0.734051 -0.197434,-1.105769 -3.6e-5,-2.46e-4 3.7e-5,-3.83e-4 0,-7.68e-4 -0.0568,-0.37172 -0.104272,-0.746306 -0.142625,-1.123785 -2.3e-5,-2.5e-4 2.6e-5,-3.83e-4 0,-7.68e-4 -0.03836,-0.377731 -0.06766,-0.758023 -0.08708,-1.141054 -0.01941,-0.383027 -0.02929,-0.768208 -0.02929,-1.156065 0,-2.51e-4 0,-3.85e-4 0,-7.68e-4 1.2e-5,-0.387857 0.0098,-0.773791 0.02929,-1.15682 0.01941,-0.382779 0.04875,-0.762814 0.08708,-1.140303 2.6e-5,-2.46e-4 -2.3e-5,-3.85e-4 0,-7.68e-4 0.03833,-0.377486 0.08585,-0.752061 0.142625,-1.12379 3.7e-5,-2.41e-4 -3.6e-5,-3.83e-4 0,-7.68e-4 0.0568,-0.37172 0.122649,-0.740274 0.197434,-1.105769 4.7e-5,-2.43e-4 -4.9e-5,-3.84e-4 0,-7.68e-4 0.07478,-0.365491 0.15843,-0.72746 0.250731,-1.086252 6.1e-5,-2.35e-4 -6.3e-5,-3.84e-4 0,-7.69e-4 0.09232,-0.358787 0.193926,-0.714366 0.303278,-1.065984 7.4e-5,-2.28e-4 -6.9e-5,-3.84e-4 0,-7.69e-4 0.109355,-0.35162 0.227642,-0.699488 0.353576,-1.043465 7.9e-5,-2.21e-4 -7.6e-5,-3.86e-4 0,-7.69e-4 0.125946,-0.343974 0.260327,-0.683575 0.402374,-1.019439 8.8e-5,-2.13e-4 -9e-5,-3.86e-4 0,-7.69e-4 0.142056,-0.335865 0.291975,-0.667383 0.449663,-0.994668 9.6e-5,-1.99e-4 -9.6e-5,-3.83e-4 0,-7.69e-4 0.157701,-0.32728 0.323346,-0.65016 0.49621,-0.968393 1.03e-4,-1.92e-4 -1.04e-4,-3.84e-4 0,-7.69e-4 0.172875,-0.318234 0.353683,-0.631905 0.541249,-0.94062 1.11e-4,-1.8e-4 -1.07e-4,-3.83e-4 0,-7.69e-4 0.187576,-0.308713 0.38299,-0.61187 0.584787,-0.910589 1.15e-4,-1.7e-4 -1.11e-4,-7.69e-4 0,-7.69e-4 0.201813,-0.298718 0.410518,-0.592303 0.626079,-0.880561 1.19e-4,-1.57e-4 -1.2e-4,-7.67e-4 0,-7.67e-4 0.215578,-0.288259 0.438506,-0.570956 0.667366,-0.848284 1.19e-4,-1.46e-4 -1.18e-4,-7.69e-4 0,-7.69e-4 0.228873,-0.277327 0.46472,-0.548578 0.706402,-0.814501 1.24e-4,-1.33e-4 -1.22e-4,-7.69e-4 0,-7.69e-4 0.241694,-0.265922 0.489899,-0.52592 0.743939,-0.779971 4.066763,-4.066765 9.684992,-6.582063 15.890665,-6.582074 4.178838,0.0096 8.272247,1.184067 11.820409,3.39163 6.3983,3.09596 11.41502,-3.339896 5.33066,-8.60519 -5.14966,-3.198019 -11.089201,-4.896406 -17.151069,-4.904284 z"
       id="path1562"
       transform="matrix(1.169704,0,0,1.169704,-18.244082,-15.581474)" />
    <path
       inkscape:connector-curvature="0"
       style="opacity:1;fill:#211b66;fill-opacity:1;fill-rule:nonzero;stroke:#000000;stroke-width:0;stroke-linecap:round;stroke-linejoin:bevel;stroke-miterlimit:4;stroke-dasharray:none;stroke-dashoffset:0;stroke-opacity:1;paint-order:normal;filter:url(#filter8014)"
       d="m -10.955944,69.380944 c -2.390067,0 -4.313948,1.924397 -4.313948,4.314466 v 36.35075 c 0,1.49379 0.751369,2.80533 1.898592,3.57911 1.14e-4,8e-5 5.29e-4,-8e-5 5.29e-4,0 0.573535,0.38675 1.246246,0.63925 1.973009,0.71262 0.145382,0.0147 0.292969,0.0222 0.442347,0.0222 H 9.7265278 c 2.3900692,0 4.3139492,-1.92388 4.3139492,-4.31395 0,-2.39006 -1.92388,-4.31446 -4.3139492,-4.31446 H -6.6414786 V 73.69541 c 0,-2.390069 -1.924396,-4.314466 -4.3144654,-4.314466 z"
       id="rect856" />
    <path
       inkscape:connector-curvature="0"
       style="opacity:1;fill:#211b66;fill-opacity:1;fill-rule:nonzero;stroke:#000000;stroke-width:0;stroke-linecap:round;stroke-linejoin:bevel;stroke-miterlimit:4;stroke-dasharray:none;stroke-dashoffset:0;stroke-opacity:1;paint-order:normal;filter:url(#filter8002)"
       d="m 124.85574,69.380944 c -2.39007,0 -4.31446,1.9244 -4.31446,4.314466 v 36.35075 c 0,0.29876 0.03,0.58991 0.0873,0.87126 0.0573,0.28135 0.14176,0.55256 0.25063,0.81081 0.6532,1.54947 2.18396,2.63188 3.9765,2.63188 h 20.68194 c 2.39007,0 4.31446,-1.92388 4.31446,-4.31395 0,-2.39007 -1.92439,-4.31447 -4.31446,-4.31447 H 129.16969 V 95.320964 h 9.90947 c 1.92986,0 3.48351,-1.553647 3.48351,-3.483509 0,-1.929863 -1.55365,-3.483507 -3.48351,-3.483507 h -9.90947 V 78.009359 h 16.36799 c 2.39007,0 4.31446,-1.923881 4.31446,-4.313949 0,-2.390066 -1.92439,-4.314466 -4.31446,-4.314466 z"
       id="rect856-9" />
    <path
       style="opacity:1;fill:#211b66;fill-opacity:1;fill-rule:nonzero;stroke:#000000;stroke-width:0;stroke-linecap:round;stroke-linejoin:bevel;stroke-miterlimit:4;stroke-dasharray:none;stroke-dashoffset:0;stroke-opacity:1;paint-order:normal;filter:url(#filter7990)"
       d="m 86.850968,69.513236 c -0.8884,0 -1.71185,0.268198 -2.39415,0.728387 -0.11372,0.07669 -0.22383,0.158856 -0.32936,0.245868 -0.9495,0.783095 -1.55308,1.969851 -1.55306,3.30232 v 20.120751 3.45855 c -0.10901,0.551301 -0.1063,1.110588 0,1.649367 v 10.802851 c -2e-5,2.36907 1.90748,4.27605 4.27657,4.27605 2.36908,0 4.27607,-1.90698 4.27607,-4.27605 v -4.1767 l 14.005272,8.086 c 2.05168,1.18454 4.65688,0.48632 5.84143,-1.56536 1.18453,-2.05168 0.48631,-4.65689 -1.56536,-5.84143 L 95.314478,98.186623 h 5.474162 v -0.0502 a 12.322115,14.323233 0 0 0 11.91488,-14.29981 12.322115,14.323233 0 0 0 -11.91487,-14.306474 v -0.0169 h -0.40723 z m 4.27607,8.552638 h 9.485902 a 4.9848298,5.7841122 0 0 1 4.75346,5.770739 4.9848298,5.7841122 0 0 1 -4.98446,5.784054 4.9848298,5.7841122 0 0 1 -0.0527,-0.0031 v 0.0164 h -9.202142 z"
       id="rect1715"
       inkscape:connector-curvature="0" />
  </g>
  <g
     inkscape:groupmode="layer"
     id="layer4"
     inkscape:label="penguin"
     transform="translate(-49.261006,-25.288252)">
    <circle
       cy="61.754883"
       cx="76.057411"
       id="circle830"
       style="opacity:1;fill:#ffffff;fill-opacity:1;fill-rule:nonzero;stroke:#000000;stroke-width:0;stroke-linecap:round;stroke-linejoin:bevel;stroke-miterlimit:4;stroke-dasharray:none;stroke-dashoffset:0;stroke-opacity:1;paint-order:normal"
       r="13.8114" />
    <path
       style="opacity:1;fill:#c69100;fill-opacity:1;fill-rule:nonzero;stroke:#000000;stroke-width:0;stroke-linecap:round;stroke-linejoin:bevel;stroke-miterlimit:4;stroke-dasharray:none;stroke-dashoffset:0;stroke-opacity:1;paint-order:normal"
       d="m 76.057413,48.786632 -5.832432,2.778929 5.962947,6.123993 5.701917,-6.123993 z"
       id="path2396"
       inkscape:connector-curvature="0"
       sodipodi:nodetypes="ccccc" />
    <path
       style="opacity:1;fill:#ffffff;fill-opacity:1;fill-rule:nonzero;stroke:#ffffff;stroke-width:0.7018224;stroke-linecap:round;stroke-linejoin:bevel;stroke-miterlimit:4;stroke-dasharray:none;stroke-dashoffset:0;stroke-opacity:1;paint-order:normal"
       d="m 70.511182,41.565047 a 4.2810989,8.0552879 0 0 0 -3.586555,3.758314 l 0.492925,0.584721 a 4.2810989,9.5716394 0 0 1 3.164358,-3.046575 4.2810989,9.5716394 0 0 1 3.130066,3.139318 L 74.2049,45.436276 a 4.2810989,8.0552879 0 0 0 -3.62299,-3.871229 4.2810989,8.0552879 0 0 0 -0.07072,0 z"
       id="path900"
       inkscape:connector-curvature="0"
       inkscape:export-xdpi="1133"
       inkscape:export-ydpi="1133" />
    <path
       inkscape:connector-curvature="0"
       id="path919"
       d="m 81.412228,41.5808 a 4.2810989,8.0552879 0 0 1 3.586554,3.758314 l -0.492925,0.584721 a 4.2810989,9.5716394 0 0 0 -3.164358,-3.046574 4.2810989,9.5716394 0 0 0 -3.130066,3.139318 l -0.492923,-0.56455 a 4.2810989,8.0552879 0 0 1 3.622989,-3.871229 4.2810989,8.0552879 0 0 1 0.07072,0 z"
       style="opacity:1;fill:#ffffff;fill-opacity:1;fill-rule:nonzero;stroke:#ffffff;stroke-width:0.7018224;stroke-linecap:round;stroke-linejoin:bevel;stroke-miterlimit:4;stroke-dasharray:none;stroke-dashoffset:0;stroke-opacity:1;paint-order:normal" />
  </g>
  <g
     inkscape:groupmode="layer"
     id="layer2"
     inkscape:label="occhi"
     style="opacity:0"
     sodipodi:insensitive="true"
     transform="translate(-35.692937,-59.56741)">
    <ellipse
       transform="translate(11.710608,-5.3473588)"
       cy="81.071602"
       cx="54.682861"
       id="circle831"
       style="opacity:1;fill:#ffffff;fill-opacity:1;fill-rule:nonzero;stroke:#000000;stroke-width:0;stroke-linecap:round;stroke-linejoin:bevel;stroke-miterlimit:4;stroke-dasharray:none;stroke-dashoffset:0;stroke-opacity:1;paint-order:normal"
       rx="2.3306086"
       ry="2.8604496" />
    <ellipse
       transform="translate(11.710608,-5.3473588)"
       style="opacity:0.81699997;fill:#000000;fill-opacity:1;fill-rule:nonzero;stroke:#000000;stroke-width:0;stroke-linecap:round;stroke-linejoin:bevel;stroke-miterlimit:4;stroke-dasharray:none;stroke-dashoffset:0;stroke-opacity:1;paint-order:normal"
       id="path3205"
       cx="54.682861"
       cy="81.071602"
       rx="1.8474422"
       ry="2.2674398" />
    <circle
       transform="translate(11.710608,-5.3473588)"
       style="opacity:1;fill:#ffffff;fill-opacity:1;fill-rule:nonzero;stroke:#000000;stroke-width:0;stroke-linecap:round;stroke-linejoin:bevel;stroke-miterlimit:4;stroke-dasharray:none;stroke-dashoffset:0;stroke-opacity:1;paint-order:normal"
       id="path3203"
       cx="53.666668"
       cy="79.776863"
       r="0.88133085" />
    <ellipse
       transform="translate(11.710608,-5.3473588)"
       style="opacity:1;fill:#ffffff;fill-opacity:1;fill-rule:nonzero;stroke:#000000;stroke-width:0;stroke-linecap:round;stroke-linejoin:bevel;stroke-miterlimit:4;stroke-dasharray:none;stroke-dashoffset:0;stroke-opacity:1;paint-order:normal"
       id="circle833"
       cx="62.419388"
       cy="81.071602"
       rx="2.3306086"
       ry="2.8604496" />
    <ellipse
       transform="translate(11.710608,-5.3473588)"
       cy="81.071602"
       cx="62.419388"
       id="circle835"
       style="opacity:0.81699997;fill:#000000;fill-opacity:1;fill-rule:nonzero;stroke:#000000;stroke-width:0;stroke-linecap:round;stroke-linejoin:bevel;stroke-miterlimit:4;stroke-dasharray:none;stroke-dashoffset:0;stroke-opacity:1;paint-order:normal"
       rx="1.8474422"
       ry="2.2674398" />
    <circle
       transform="translate(11.710608,-5.3473588)"
       r="0.88133085"
       cy="79.776863"
       cx="61.360374"
       id="circle837"
       style="opacity:1;fill:#ffffff;fill-opacity:1;fill-rule:nonzero;stroke:#000000;stroke-width:0;stroke-linecap:round;stroke-linejoin:bevel;stroke-miterlimit:4;stroke-dasharray:none;stroke-dashoffset:0;stroke-opacity:1;paint-order:normal" />
  </g>
</svg>
